<mxfile host="app.diagrams.net" agent="Mozilla/5.0 (Windows NT 10.0; Win64; x64) AppleWebKit/537.36 (KHTML, like Gecko) Chrome/136.0.0.0 Safari/537.36" version="26.0.16">
  <diagram name="Page-1" id="UffeNxlb7dgKfzmTbBBW">
    <mxGraphModel dx="947" dy="791" grid="1" gridSize="10" guides="1" tooltips="1" connect="1" arrows="1" fold="1" page="1" pageScale="1" pageWidth="827" pageHeight="1169" math="0" shadow="0">
      <root>
        <mxCell id="0" />
        <mxCell id="1" parent="0" />
        <mxCell id="VkQyWtt6mqm7e_CVRBOZ-18" value="" style="group" vertex="1" connectable="0" parent="1">
          <mxGeometry x="70" y="390" width="640" height="80" as="geometry" />
        </mxCell>
        <mxCell id="VkQyWtt6mqm7e_CVRBOZ-2" value="" style="whiteSpace=wrap;html=1;aspect=fixed;flipH=1;flipV=1;" vertex="1" parent="VkQyWtt6mqm7e_CVRBOZ-18">
          <mxGeometry x="560" width="80" height="80" as="geometry" />
        </mxCell>
        <mxCell id="VkQyWtt6mqm7e_CVRBOZ-3" value="" style="whiteSpace=wrap;html=1;aspect=fixed;flipH=1;flipV=1;" vertex="1" parent="VkQyWtt6mqm7e_CVRBOZ-18">
          <mxGeometry x="480" width="80" height="80" as="geometry" />
        </mxCell>
        <mxCell id="VkQyWtt6mqm7e_CVRBOZ-4" value="" style="whiteSpace=wrap;html=1;aspect=fixed;flipH=1;flipV=1;" vertex="1" parent="VkQyWtt6mqm7e_CVRBOZ-18">
          <mxGeometry x="400" width="80" height="80" as="geometry" />
        </mxCell>
        <mxCell id="VkQyWtt6mqm7e_CVRBOZ-5" value="" style="whiteSpace=wrap;html=1;aspect=fixed;flipH=1;flipV=1;" vertex="1" parent="VkQyWtt6mqm7e_CVRBOZ-18">
          <mxGeometry x="320" width="80" height="80" as="geometry" />
        </mxCell>
        <mxCell id="VkQyWtt6mqm7e_CVRBOZ-6" value="" style="whiteSpace=wrap;html=1;aspect=fixed;flipH=1;flipV=1;" vertex="1" parent="VkQyWtt6mqm7e_CVRBOZ-18">
          <mxGeometry x="240" width="80" height="80" as="geometry" />
        </mxCell>
        <mxCell id="VkQyWtt6mqm7e_CVRBOZ-7" value="" style="whiteSpace=wrap;html=1;aspect=fixed;flipH=1;flipV=1;" vertex="1" parent="VkQyWtt6mqm7e_CVRBOZ-18">
          <mxGeometry x="160" width="80" height="80" as="geometry" />
        </mxCell>
        <mxCell id="VkQyWtt6mqm7e_CVRBOZ-8" value="" style="whiteSpace=wrap;html=1;aspect=fixed;flipH=1;flipV=1;" vertex="1" parent="VkQyWtt6mqm7e_CVRBOZ-18">
          <mxGeometry width="80" height="80" as="geometry" />
        </mxCell>
        <mxCell id="VkQyWtt6mqm7e_CVRBOZ-9" value="" style="whiteSpace=wrap;html=1;aspect=fixed;flipH=1;flipV=1;" vertex="1" parent="VkQyWtt6mqm7e_CVRBOZ-18">
          <mxGeometry x="80" width="80" height="80" as="geometry" />
        </mxCell>
        <mxCell id="VkQyWtt6mqm7e_CVRBOZ-19" value="" style="whiteSpace=wrap;html=1;aspect=fixed;flipH=1;flipV=1;" vertex="1" parent="1">
          <mxGeometry x="150" y="160" width="80" height="80" as="geometry" />
        </mxCell>
        <mxCell id="VkQyWtt6mqm7e_CVRBOZ-20" value="" style="whiteSpace=wrap;html=1;aspect=fixed;flipH=1;flipV=1;" vertex="1" parent="1">
          <mxGeometry x="70" y="160" width="80" height="80" as="geometry" />
        </mxCell>
        <mxCell id="VkQyWtt6mqm7e_CVRBOZ-21" value="" style="whiteSpace=wrap;html=1;aspect=fixed;flipH=1;flipV=1;" vertex="1" parent="1">
          <mxGeometry x="340" y="160" width="80" height="80" as="geometry" />
        </mxCell>
        <mxCell id="VkQyWtt6mqm7e_CVRBOZ-22" value="" style="whiteSpace=wrap;html=1;aspect=fixed;flipH=1;flipV=1;" vertex="1" parent="1">
          <mxGeometry x="260" y="160" width="80" height="80" as="geometry" />
        </mxCell>
        <mxCell id="VkQyWtt6mqm7e_CVRBOZ-23" value="" style="whiteSpace=wrap;html=1;aspect=fixed;flipH=1;flipV=1;" vertex="1" parent="1">
          <mxGeometry x="530" y="160" width="80" height="80" as="geometry" />
        </mxCell>
        <mxCell id="VkQyWtt6mqm7e_CVRBOZ-24" value="" style="whiteSpace=wrap;html=1;aspect=fixed;flipH=1;flipV=1;" vertex="1" parent="1">
          <mxGeometry x="450" y="160" width="80" height="80" as="geometry" />
        </mxCell>
      </root>
    </mxGraphModel>
  </diagram>
</mxfile>
